<svg width="1200" height="900" viewBox="0 0 1200 900" fill="none" xmlns="http://www.w3.org/2000/svg">
  <rect width="1200" height="900" fill="#111827"/>
  <rect width="1200" height="900" fill="url(#bg)"/>
  <circle cx="1040" cy="165" r="210" fill="#F97316" fill-opacity="0.18"/>
  <circle cx="180" cy="730" r="190" fill="#38BDF8" fill-opacity="0.12"/>
  <rect x="120" y="150" width="960" height="600" rx="38" fill="#F8FAFC" fill-opacity="0.07" stroke="#E2E8F0" stroke-opacity="0.25" stroke-width="2"/>
  <rect x="180" y="240" width="270" height="340" rx="30" fill="#0F172A" fill-opacity="0.6"/>
  <rect x="228" y="300" width="34" height="220" rx="17" fill="#7DD3FC"/>
  <rect x="286" y="360" width="34" height="160" rx="17" fill="#FDBA74"/>
  <rect x="344" y="270" width="34" height="250" rx="17" fill="#38BDF8"/>
  <rect x="402" y="410" width="34" height="110" rx="17" fill="#FB923C"/>
  <rect x="500" y="240" width="520" height="150" rx="30" fill="#FFF7ED" fill-opacity="0.08"/>
  <path d="M560 325H745" stroke="#E2E8F0" stroke-opacity="0.95" stroke-width="18" stroke-linecap="round"/>
  <path d="M815 325H900" stroke="#FDBA74" stroke-width="18" stroke-linecap="round"/>
  <path d="M555 505H675V640H555V505Z" fill="#0EA5E9" fill-opacity="0.26" stroke="#7DD3FC" stroke-opacity="0.45" stroke-width="2"/>
  <path d="M750 505H870V640H750V505Z" fill="#F97316" fill-opacity="0.24" stroke="#FDBA74" stroke-opacity="0.4" stroke-width="2"/>
  <path d="M675 572H750" stroke="#E2E8F0" stroke-opacity="0.65" stroke-width="14" stroke-linecap="round" stroke-dasharray="10 14"/>
  <path d="M615 430V505" stroke="#7DD3FC" stroke-width="14" stroke-linecap="round"/>
  <path d="M810 430V505" stroke="#FDBA74" stroke-width="14" stroke-linecap="round"/>
  <rect x="500" y="680" width="520" height="32" rx="16" fill="#FFFFFF" fill-opacity="0.08"/>
  <defs>
    <linearGradient id="bg" x1="120" y1="150" x2="1080" y2="750" gradientUnits="userSpaceOnUse">
      <stop stop-color="#0F172A"/>
      <stop offset="1" stop-color="#431407"/>
    </linearGradient>
  </defs>
</svg>
