<svg width="1200" height="900" viewBox="0 0 1200 900" fill="none" xmlns="http://www.w3.org/2000/svg">
  <rect width="1200" height="900" fill="#0B1120"/>
  <rect width="1200" height="900" fill="url(#bg)"/>
  <circle cx="1035" cy="170" r="210" fill="#38BDF8" fill-opacity="0.16"/>
  <circle cx="160" cy="740" r="185" fill="#F97316" fill-opacity="0.12"/>
  <rect x="135" y="150" width="930" height="600" rx="38" fill="#FFFFFF" fill-opacity="0.05" stroke="#E2E8F0" stroke-opacity="0.22" stroke-width="2"/>
  <rect x="210" y="220" width="310" height="420" rx="30" fill="#EFF6FF" fill-opacity="0.08"/>
  <rect x="260" y="280" width="170" height="20" rx="10" fill="#DBEAFE"/>
  <rect x="260" y="335" width="130" height="14" rx="7" fill="#DBEAFE" fill-opacity="0.7"/>
  <rect x="260" y="372" width="165" height="14" rx="7" fill="#DBEAFE" fill-opacity="0.5"/>
  <rect x="260" y="409" width="142" height="14" rx="7" fill="#DBEAFE" fill-opacity="0.35"/>
  <path d="M560 430H665" stroke="#7DD3FC" stroke-width="16" stroke-linecap="round"/>
  <path d="M625 385L675 430L625 475" stroke="#7DD3FC" stroke-width="16" stroke-linecap="round" stroke-linejoin="round"/>
  <rect x="720" y="245" width="250" height="110" rx="26" fill="#38BDF8" fill-opacity="0.18"/>
  <rect x="720" y="395" width="250" height="110" rx="26" fill="#F97316" fill-opacity="0.18"/>
  <rect x="720" y="545" width="250" height="110" rx="26" fill="#93C5FD" fill-opacity="0.12"/>
  <path d="M775 300H910" stroke="#DBEAFE" stroke-opacity="0.9" stroke-width="16" stroke-linecap="round"/>
  <path d="M775 450H905" stroke="#FFEDD5" stroke-opacity="0.85" stroke-width="16" stroke-linecap="round"/>
  <path d="M775 600H885" stroke="#DBEAFE" stroke-opacity="0.8" stroke-width="16" stroke-linecap="round"/>
  <defs>
    <linearGradient id="bg" x1="135" y1="150" x2="1065" y2="750" gradientUnits="userSpaceOnUse">
      <stop stop-color="#0F172A"/>
      <stop offset="1" stop-color="#082F49"/>
    </linearGradient>
  </defs>
</svg>
