<svg width="1200" height="900" viewBox="0 0 1200 900" fill="none" xmlns="http://www.w3.org/2000/svg">
  <rect width="1200" height="900" fill="#09111C"/>
  <rect width="1200" height="900" fill="url(#bg)"/>
  <circle cx="1010" cy="180" r="200" fill="#38BDF8" fill-opacity="0.14"/>
  <circle cx="210" cy="710" r="180" fill="#F97316" fill-opacity="0.12"/>
  <rect x="110" y="145" width="980" height="610" rx="40" fill="#0F172A" fill-opacity="0.56" stroke="#7DD3FC" stroke-opacity="0.22" stroke-width="2"/>
  <rect x="180" y="255" width="210" height="270" rx="28" fill="#E0F2FE" fill-opacity="0.08"/>
  <rect x="210" y="300" width="150" height="20" rx="10" fill="#BAE6FD"/>
  <rect x="210" y="346" width="110" height="14" rx="7" fill="#E0F2FE" fill-opacity="0.7"/>
  <rect x="210" y="382" width="135" height="14" rx="7" fill="#E0F2FE" fill-opacity="0.5"/>
  <rect x="210" y="418" width="120" height="14" rx="7" fill="#E0F2FE" fill-opacity="0.35"/>
  <rect x="495" y="240" width="210" height="210" rx="105" fill="#0EA5E9" fill-opacity="0.18" stroke="#7DD3FC" stroke-opacity="0.55" stroke-width="2"/>
  <circle cx="600" cy="345" r="58" fill="#F97316" fill-opacity="0.7"/>
  <path d="M600 470V610" stroke="#7DD3FC" stroke-width="18" stroke-linecap="round"/>
  <path d="M390 390H495" stroke="#7DD3FC" stroke-width="14" stroke-linecap="round"/>
  <path d="M705 390H815" stroke="#7DD3FC" stroke-width="14" stroke-linecap="round"/>
  <path d="M310 525L520 610" stroke="#FB923C" stroke-opacity="0.9" stroke-width="12" stroke-linecap="round"/>
  <path d="M890 525L680 610" stroke="#FB923C" stroke-opacity="0.9" stroke-width="12" stroke-linecap="round"/>
  <rect x="810" y="255" width="210" height="270" rx="28" fill="#E0F2FE" fill-opacity="0.08"/>
  <rect x="840" y="300" width="150" height="20" rx="10" fill="#BAE6FD"/>
  <rect x="840" y="346" width="120" height="14" rx="7" fill="#E0F2FE" fill-opacity="0.7"/>
  <rect x="840" y="382" width="135" height="14" rx="7" fill="#E0F2FE" fill-opacity="0.5"/>
  <rect x="840" y="418" width="110" height="14" rx="7" fill="#E0F2FE" fill-opacity="0.35"/>
  <rect x="430" y="610" width="340" height="84" rx="30" fill="#FFF7ED" fill-opacity="0.08"/>
  <path d="M495 652H705" stroke="#FED7AA" stroke-width="16" stroke-linecap="round"/>
  <defs>
    <linearGradient id="bg" x1="110" y1="145" x2="1090" y2="755" gradientUnits="userSpaceOnUse">
      <stop stop-color="#082F49"/>
      <stop offset="1" stop-color="#111827"/>
    </linearGradient>
  </defs>
</svg>
