<svg width="1200" height="900" viewBox="0 0 1200 900" fill="none" xmlns="http://www.w3.org/2000/svg">
  <rect width="1200" height="900" fill="#120F0A"/>
  <rect width="1200" height="900" fill="url(#bg)"/>
  <circle cx="980" cy="120" r="220" fill="#F97316" fill-opacity="0.18"/>
  <circle cx="180" cy="760" r="180" fill="#FB923C" fill-opacity="0.14"/>
  <rect x="110" y="150" width="980" height="600" rx="34" fill="#FFF7ED" fill-opacity="0.08" stroke="#FED7AA" stroke-opacity="0.35" stroke-width="2"/>
  <rect x="170" y="220" width="860" height="72" rx="22" fill="#FFFFFF" fill-opacity="0.1"/>
  <rect x="210" y="245" width="180" height="22" rx="11" fill="#FDBA74"/>
  <rect x="850" y="242" width="120" height="28" rx="14" fill="#FFEDD5" fill-opacity="0.42"/>
  <rect x="170" y="340" width="250" height="320" rx="28" fill="#0C4A6E" fill-opacity="0.48"/>
  <rect x="470" y="340" width="250" height="150" rx="28" fill="#7C2D12" fill-opacity="0.55"/>
  <rect x="770" y="340" width="200" height="150" rx="28" fill="#9A3412" fill-opacity="0.58"/>
  <rect x="470" y="530" width="500" height="130" rx="28" fill="#FFFFFF" fill-opacity="0.08"/>
  <path d="M240 560L295 500L350 540L390 450" stroke="#FDBA74" stroke-width="18" stroke-linecap="round" stroke-linejoin="round"/>
  <circle cx="390" cy="450" r="14" fill="#FDBA74"/>
  <path d="M535 410H652" stroke="#FFEDD5" stroke-opacity="0.9" stroke-width="16" stroke-linecap="round"/>
  <path d="M815 415H905" stroke="#FFEDD5" stroke-opacity="0.85" stroke-width="16" stroke-linecap="round"/>
  <path d="M545 585H885" stroke="#FED7AA" stroke-opacity="0.9" stroke-width="16" stroke-linecap="round"/>
  <path d="M545 625H775" stroke="#FED7AA" stroke-opacity="0.6" stroke-width="12" stroke-linecap="round"/>
  <defs>
    <linearGradient id="bg" x1="170" y1="88" x2="1099" y2="809" gradientUnits="userSpaceOnUse">
      <stop stop-color="#431407"/>
      <stop offset="1" stop-color="#111827"/>
    </linearGradient>
  </defs>
</svg>
